<?xml version="1.0" encoding="UTF-8"?>
<!DOCTYPE svg PUBLIC "-//W3C//DTD SVG 1.1//EN" "http://www.w3.org/Graphics/SVG/1.1/DTD/svg11.dtd">
<svg xmlns="http://www.w3.org/2000/svg" version="1.1" width="1516px" height="673px" style="shape-rendering:geometricPrecision; text-rendering:geometricPrecision; image-rendering:optimizeQuality; fill-rule:evenodd; clip-rule:evenodd" xmlns:xlink="http://www.w3.org/1999/xlink">
<g><path style="opacity:0.995" fill="#fefffe" d="M 485.5,13.5 C 524.179,12.7466 546.679,31.4133 553,69.5C 553.784,72.7603 553.617,75.9269 552.5,79C 588.264,78.6145 610.097,95.7812 618,130.5C 620.464,156.401 610.964,176.568 589.5,191C 579.792,196.177 569.459,199.344 558.5,200.5C 581.201,255.609 584.701,311.942 569,369.5C 542.022,453.145 486.855,508.978 403.5,537C 354.5,551 305.5,551 256.5,537C 158.127,512.293 101.293,449.793 86,349.5C 70.1778,254.959 97.3445,175.459 167.5,111C 237.56,54.3864 316.226,38.0531 403.5,62C 412.95,65.2052 422.283,68.7052 431.5,72.5C 435.708,39.9676 453.708,20.3009 485.5,13.5 Z M 492.5,41.5 C 512.199,43.199 522.866,53.8657 524.5,73.5C 524.688,80.4153 522.854,86.7486 519,92.5C 512.031,100.47 504.698,108.136 497,115.5C 487.551,106.547 477.385,98.547 466.5,91.5C 459.183,77.9345 460.017,64.9345 469,52.5C 475.594,45.9503 483.427,42.2837 492.5,41.5 Z M 551.5,107.5 C 579.063,106.892 591.563,120.225 589,147.5C 582.373,165.403 569.54,172.903 550.5,170C 546.462,169.101 542.795,167.434 539.5,165C 532.532,154.899 525.199,145.065 517.5,135.5C 524.319,128.181 531.319,121.014 538.5,114C 542.647,111.26 546.98,109.093 551.5,107.5 Z"/></g>
<g><path style="opacity:0.959" fill="#fefffe" d="M 1307.5,230.5 C 1310.32,230.248 1312.99,230.748 1315.5,232C 1323.33,238.5 1330.5,245.667 1337,253.5C 1339.15,257.087 1338.82,260.42 1336,263.5C 1329.5,270 1323,276.5 1316.5,283C 1314.61,284.112 1312.61,284.946 1310.5,285.5C 1307.47,284.639 1304.81,283.139 1302.5,281C 1294.7,274.209 1288.03,266.542 1282.5,258C 1283.28,255.61 1284.44,253.443 1286,251.5C 1293.06,244.27 1300.23,237.27 1307.5,230.5 Z"/></g>
<g><path style="opacity:0.976" fill="#fefffe" d="M 706.5,247.5 C 716.839,247.334 727.172,247.5 737.5,248C 742.741,249.239 746.908,252.072 750,256.5C 763.326,277.153 773.993,299.153 782,322.5C 793.465,353.696 801.799,385.696 807,418.5C 807.867,424.493 808.2,430.493 808,436.5C 807.535,437.931 806.701,439.097 805.5,440C 791.833,440.667 778.167,440.667 764.5,440C 763.107,438.829 762.273,437.329 762,435.5C 761.047,423.089 759.547,410.756 757.5,398.5C 733.167,398.5 708.833,398.5 684.5,398.5C 682.453,410.753 680.953,423.087 680,435.5C 679.727,437.329 678.893,438.829 677.5,440C 664.167,440.667 650.833,440.667 637.5,440C 637,439.5 636.5,439 636,438.5C 636.999,409.832 641.999,381.832 651,354.5C 659.512,326.628 670.178,299.628 683,273.5C 687.401,265.201 692.901,257.701 699.5,251C 701.925,249.787 704.259,248.621 706.5,247.5 Z M 719.5,291.5 C 720.496,291.414 721.329,291.748 722,292.5C 733.504,315.18 742.337,338.847 748.5,363.5C 729.833,363.5 711.167,363.5 692.5,363.5C 698.356,338.26 707.356,314.26 719.5,291.5 Z"/></g>
<g><path style="opacity:0.971" fill="#fefffe" d="M 854.5,298.5 C 857.32,298.248 859.986,298.748 862.5,300C 868.343,304.677 873.676,309.843 878.5,315.5C 893.739,301.351 911.739,296.185 932.5,300C 958.938,305.442 974.105,321.609 978,348.5C 982.871,374.769 978.204,399.103 964,421.5C 945.136,442.619 921.969,449.119 894.5,441C 888.871,438.602 884.037,435.102 880,430.5C 879.667,450.167 879.333,469.833 879,489.5C 873.237,497.639 866.07,504.306 857.5,509.5C 848.574,504.741 841.407,498.074 836,489.5C 835.333,432.167 835.333,374.833 836,317.5C 841.389,310.393 847.555,304.06 854.5,298.5 Z M 898.5,334.5 C 923.608,332.771 935.941,344.605 935.5,370C 936.068,383.308 931.735,394.641 922.5,404C 911.942,410.325 901.275,410.659 890.5,405C 884.905,400.409 881.405,394.576 880,387.5C 879.333,374.5 879.333,361.5 880,348.5C 884.137,341.029 890.304,336.362 898.5,334.5 Z"/></g>
<g><path style="opacity:0.977" fill="#fefffe" d="M 1026.5,298.5 C 1029.32,298.248 1031.99,298.748 1034.5,300C 1040.34,304.677 1045.68,309.843 1050.5,315.5C 1058.95,306.609 1069.28,301.442 1081.5,300C 1119.21,295.419 1142.04,311.586 1150,348.5C 1154.69,374.734 1150.02,399.067 1136,421.5C 1117.76,442.021 1095.26,448.854 1068.5,442C 1061.66,439.17 1055.83,435.004 1051,429.5C 1050.67,450.167 1050.33,470.833 1050,491.5C 1043.93,498.402 1037.1,504.402 1029.5,509.5C 1020.57,504.741 1013.41,498.074 1008,489.5C 1007.33,432.167 1007.33,374.833 1008,317.5C 1013.03,309.973 1019.19,303.64 1026.5,298.5 Z M 1070.5,334.5 C 1079.33,333.473 1087.66,334.973 1095.5,339C 1104.11,347.657 1108.11,358.157 1107.5,370.5C 1107.74,383.509 1103.41,394.676 1094.5,404C 1080.14,412.188 1067.3,410.355 1056,398.5C 1052.62,392.634 1050.95,386.301 1051,379.5C 1050.33,369.833 1050.33,360.167 1051,350.5C 1054.79,341.709 1061.29,336.376 1070.5,334.5 Z"/></g>
<g><path style="opacity:0.971" fill="#fefffe" d="M 1198.5,298.5 C 1201.32,298.248 1203.99,298.748 1206.5,300C 1211.63,304.133 1216.47,308.633 1221,313.5C 1222.21,318.051 1222.88,322.718 1223,327.5C 1231.47,304.583 1247.14,296.583 1270,303.5C 1270.96,315.596 1270.62,327.596 1269,339.5C 1268.44,340.022 1267.77,340.355 1267,340.5C 1239.55,333.256 1224.89,343.923 1223,372.5C 1222.67,394.167 1222.33,415.833 1222,437.5C 1220.49,439.766 1218.32,440.932 1215.5,441C 1204.45,441.879 1193.45,441.546 1182.5,440C 1181.67,439.167 1180.83,438.333 1180,437.5C 1179.33,397.5 1179.33,357.5 1180,317.5C 1185.03,309.973 1191.19,303.64 1198.5,298.5 Z"/></g>
<g><path style="opacity:0.957" fill="#fefffe" d="M 1292.5,302.5 C 1304.5,302.333 1316.5,302.5 1328.5,303C 1330.72,303.652 1331.89,305.152 1332,307.5C 1332.67,350.5 1332.67,393.5 1332,436.5C 1331.53,437.931 1330.7,439.097 1329.5,440C 1316.77,442.164 1304.1,441.997 1291.5,439.5C 1290.19,438.088 1289.36,436.421 1289,434.5C 1288.33,392.833 1288.33,351.167 1289,309.5C 1289.13,306.596 1290.3,304.262 1292.5,302.5 Z"/></g>
</svg>
