<svg xmlns="http://www.w3.org/2000/svg" viewBox="0 0 500 500" width="500" height="500"><defs></defs><g transform="matrix(1,0,0,1,-25,-8)">
<rect fill="#ffffff" fill-opacity="0" x="25" y="8" width="500" height="500"/>
<g transform="matrix(1,0,0,1,25,8)">
	<g transform="matrix(1,0,0,1,270.051119509,0)">
		<path d="M-151.075115,250C-151.075115,183.785827 -97.289288,130 -31.075115,130 L -31.075115,130 C35.139059,130 88.924885,183.785827 88.924885,250 L 88.924885,250 C88.924885,316.214173 35.139059,370 -31.075115,370 L -31.075115,370 C-97.289288,370 -151.075115,316.214173 -151.075115,250 L -151.075115,250 Z" transform="" fill="#ffffff"/>
		<g transform="matrix(1.075275571,0,0,1.075275571,-287.568956125,-28.244412035)"/>
		<path d="" transform="" fill="#ffffff" stroke="#000000" stroke-width="2"/>
		<path d="M-31.075115,204.119864C-10.289953,204.119864 6.593851,220.814643 6.593851,241.367102 C6.593851,261.919561 -10.289953,278.61434 -31.075115,278.61434 C-51.860276,278.61434 -68.74408,261.919561 -68.74408,241.367102 C-68.74408,220.814643 -51.860276,204.119864 -31.075115,204.119864 Z" transform="matrix(1,0,0,1,0,0)" fill="#6dc965"/>
		<path d="M-31.075115,284.927431C-1.507087,284.927431 24.193831,336.269834 24.193831,356.517315 C24.193831,356.517315 -1.507087,370 -31.075115,370 C-60.643142,370 -86.264835,356.558517 -86.264835,356.558517 C-86.264854,336.311036 -60.643142,284.927431 -31.075115,284.927431 Z" transform="matrix(1,0,0,1,0,0)" fill="#6dc965"/>
	</g>
</g></g></svg>