<?xml version="1.0" encoding="UTF-8" standalone="no"?>
<!DOCTYPE svg PUBLIC "-//W3C//DTD SVG 1.1//EN" "http://www.w3.org/Graphics/SVG/1.1/DTD/svg11.dtd">
<svg width="100%" height="100%" viewBox="0 0 1500 500" version="1.1" xmlns="http://www.w3.org/2000/svg" xmlns:xlink="http://www.w3.org/1999/xlink" xml:space="preserve" xmlns:serif="http://www.serif.com/" style="fill-rule:evenodd;clip-rule:evenodd;stroke-linecap:round;stroke-linejoin:round;stroke-miterlimit:1.5;">
    <g transform="matrix(1,0,0,1,475,-8)">
        <g transform="matrix(1.84089,0,0,1.31814,-566.652,-139.804)">
            <path d="M82.923,151.905C82.923,151.905 95.642,155.335 105.127,157.892C111.228,159.537 115.962,166.285 117.015,174.837C121.423,210.637 132.634,301.696 132.634,301.696C132.634,301.696 131.011,327.297 129.6,349.549C129.357,353.391 130.999,356.98 133.599,358.284C136.198,359.588 139.1,358.279 140.663,355.099C141.203,353.999 141.741,352.905 142.272,351.825C148.247,339.662 158.131,332.393 168.693,332.393L275.06,332.393C285.006,332.393 293.655,322.869 295.977,309.362C299.607,288.234 305.049,256.568 309.29,231.884C310.828,222.937 309.345,213.5 305.266,206.274C301.187,199.049 294.962,194.832 288.373,194.832C234.498,194.832 119.627,194.832 119.627,194.832" style="fill:none;stroke:rgb(109,201,101);stroke-width:14.99px;"/>
        </g>
        <g transform="matrix(1.38462,0,0,1.38462,-488.111,-65.0769)">
            <circle cx="162" cy="364" r="18" style="fill:none;stroke:rgb(109,201,101);stroke-width:17.33px;"/>
        </g>
        <g transform="matrix(1.38462,0,0,1.38462,-303.124,-65.0769)">
            <circle cx="162" cy="364" r="18" style="fill:none;stroke:rgb(109,201,101);stroke-width:17.33px;"/>
        </g>
        <g transform="matrix(1.1624,0,0,1,-491.217,25.0248)">
            <path d="M163.642,336.736C163.642,336.736 163.849,337.832 164.161,339.48C165.819,348.237 172.495,354.475 180.209,354.475C225.766,354.475 373.552,354.475 373.552,354.475" style="fill:none;stroke:rgb(109,201,101);stroke-width:19.92px;"/>
        </g>
        <g transform="matrix(1.05,0,0,1.38462,-420.107,-84.7752)">
            <path d="M186.346,190.143L331.33,190.143" style="fill:none;stroke:rgb(109,201,101);stroke-width:17.58px;"/>
        </g>
        <g transform="matrix(-25,0,0,25,4979.59,-4709)">
            <circle cx="209.5" cy="195.5" r="0.5" style="fill:rgb(109,201,101);"/>
        </g>
        <g transform="matrix(-24,0,0,24,4770.99,-4450.61)">
            <circle cx="209.5" cy="195.5" r="0.5" style="fill:rgb(109,201,101);"/>
        </g>
        <g transform="matrix(0.854778,0,0,1.12718,-382.835,27.0609)">
            <path d="M186.346,190.143L331.33,190.143" style="fill:none;stroke:rgb(109,201,101);stroke-width:21.59px;"/>
        </g>
        <g transform="matrix(1,0,0,0.718301,-479,73.5174)">
            <path d="M592.816,399.297C588.891,399.297 585.477,397.278 582.576,393.239C579.675,389.199 578.224,384.447 578.224,378.983L578.224,159.443C578.224,153.978 579.675,149.226 582.576,145.187C585.477,141.148 588.891,139.128 592.816,139.128L599.216,139.128C603.653,139.128 607.749,140.791 611.504,144.117C615.259,147.444 617.989,151.839 619.696,157.304L664.496,292.022C664.496,292.26 664.581,292.378 664.752,292.378C664.923,292.378 665.008,292.26 665.008,292.022L709.808,157.304C711.515,151.839 714.245,147.444 718,144.117C721.755,140.791 725.851,139.128 730.288,139.128L737.712,139.128C741.637,139.128 745.051,141.148 747.952,145.187C750.853,149.226 752.304,153.978 752.304,159.443L752.304,378.983C752.304,384.447 750.853,389.199 747.952,393.239C745.051,397.278 741.637,399.297 737.712,399.297L732.08,399.297C728.155,399.297 724.741,397.278 721.84,393.239C718.939,389.199 717.488,384.447 717.488,378.983L717.488,223.95C717.488,223.713 717.403,223.594 717.232,223.594C717.061,223.594 716.976,223.713 716.976,223.95L686.256,315.544C684.379,321.009 681.52,325.464 677.68,328.909C673.84,332.354 669.787,334.077 665.52,334.077L663.984,334.077C659.717,334.077 655.664,332.354 651.824,328.909C647.984,325.464 645.125,321.009 643.248,315.544L612.528,223.95C612.528,223.713 612.443,223.594 612.272,223.594C612.101,223.594 612.016,223.713 612.016,223.95L612.016,378.983C612.016,384.447 610.565,389.199 607.664,393.239C604.763,397.278 601.349,399.297 597.424,399.297L592.816,399.297Z" style="fill:rgb(109,201,101);fill-rule:nonzero;"/>
            <path d="M812.464,399.297C808.539,399.297 805.125,397.278 802.224,393.239C799.323,389.199 797.872,384.447 797.872,378.983L797.872,234.286C797.872,228.821 799.323,224.069 802.224,220.03C805.125,215.991 808.539,213.971 812.464,213.971L819.12,213.971C823.045,213.971 826.459,215.991 829.36,220.03C832.261,224.069 833.712,228.821 833.712,234.286L833.712,378.983C833.712,384.447 832.261,389.199 829.36,393.239C826.459,397.278 823.045,399.297 819.12,399.297L812.464,399.297ZM812.464,174.768C808.539,174.768 805.125,172.748 802.224,168.709C799.323,164.67 797.872,159.918 797.872,154.453L797.872,152.315C797.872,146.85 799.323,142.098 802.224,138.059C805.125,134.02 808.539,132 812.464,132L819.12,132C823.045,132 826.459,134.02 829.36,138.059C832.261,142.098 833.712,146.85 833.712,152.315L833.712,154.453C833.712,159.918 832.261,164.67 829.36,168.709C826.459,172.748 823.045,174.768 819.12,174.768L812.464,174.768Z" style="fill:rgb(109,201,101);fill-rule:nonzero;"/>
            <path d="M922.544,324.454C904.624,318.989 891.867,311.505 884.272,302.001C876.677,292.497 872.88,280.142 872.88,264.936C872.88,247.829 877.445,234.464 886.576,224.841C895.707,215.219 909.232,210.407 927.152,210.407C938.416,210.407 949.595,211.833 960.688,214.684C964.443,215.634 967.472,218.189 969.776,222.346C972.08,226.504 973.232,231.316 973.232,236.781C973.232,241.295 971.952,244.918 969.392,247.651C966.832,250.383 963.931,251.155 960.688,249.967C951.131,246.641 941.061,244.978 930.48,244.978C915.12,244.978 907.44,250.918 907.44,262.797C907.44,268.5 908.891,273.252 911.792,277.053C914.693,280.855 919.643,283.825 926.64,285.963C946.267,291.428 959.707,298.794 966.96,308.06C974.213,317.326 977.84,330.869 977.84,348.689C977.84,365.796 973.232,379.102 964.016,388.605C954.8,398.109 941.403,402.861 923.824,402.861C912.389,402.861 900.699,400.96 888.752,397.159C884.997,395.971 881.925,393.179 879.536,388.784C877.147,384.388 875.952,379.339 875.952,373.637C875.952,369.122 877.275,365.677 879.92,363.301C882.565,360.925 885.424,360.331 888.496,361.519C899.589,365.796 910.085,367.934 919.984,367.934C935.515,367.934 943.28,361.519 943.28,348.689C943.28,342.511 941.787,337.641 938.8,334.077C935.813,330.513 930.395,327.305 922.544,324.454Z" style="fill:rgb(109,201,101);fill-rule:nonzero;"/>
            <path d="M1063.6,243.552C1054.9,243.552 1048.2,246.938 1043.5,253.709C1038.81,260.481 1035.87,271.351 1034.67,286.32C1034.67,288.22 1035.36,289.171 1036.72,289.171L1086.9,289.171C1088.26,289.171 1088.94,288.22 1088.94,286.32C1088.26,257.808 1079.81,243.552 1063.6,243.552ZM1070,402.861C1047.64,402.861 1030.45,394.724 1018.42,378.448C1006.38,362.173 1000.37,338.235 1000.37,306.634C1000.37,275.271 1005.74,251.393 1016.5,234.999C1027.25,218.604 1042.78,210.407 1063.09,210.407C1100.98,210.407 1120.43,240.345 1121.46,300.219C1121.63,305.921 1120.18,310.673 1117.1,314.475C1114.03,318.277 1110.45,320.177 1106.35,320.177L1036.46,320.177C1034.93,320.177 1034.33,321.246 1034.67,323.385C1035.87,339.304 1039.66,350.887 1046.06,358.134C1052.46,365.38 1061.81,369.004 1074.1,369.004C1081.78,369.004 1090.31,367.222 1099.7,363.658C1102.77,362.47 1105.63,363.182 1108.27,365.796C1110.92,368.41 1112.24,371.974 1112.24,376.488C1112.24,381.953 1111.09,386.764 1108.78,390.922C1106.48,395.08 1103.45,397.634 1099.7,398.585C1090.14,401.436 1080.24,402.861 1070,402.861Z" style="fill:rgb(109,201,101);fill-rule:nonzero;"/>
            <path d="M1184.18,282.399L1184.18,330.869C1184.18,340.373 1187.08,348.808 1192.88,356.173C1198.68,363.539 1205.6,367.222 1213.62,367.222C1222.66,367.222 1229.83,362.173 1235.12,352.075C1240.41,341.977 1243.06,326.83 1243.06,306.634C1243.06,266.243 1233.24,246.047 1213.62,246.047C1205.6,246.047 1198.68,249.73 1192.88,257.095C1187.08,264.461 1184.18,272.895 1184.18,282.399ZM1164.98,399.297C1161.05,399.297 1157.64,397.278 1154.74,393.239C1151.84,389.199 1150.38,384.447 1150.38,378.983L1150.38,152.315C1150.38,146.85 1151.84,142.098 1154.74,138.059C1157.64,134.02 1161.05,132 1164.98,132L1170.1,132C1174.02,132 1177.43,134.02 1180.34,138.059C1183.24,142.098 1184.69,146.85 1184.69,152.315L1184.69,232.504C1184.69,232.741 1184.77,232.86 1184.94,232.86C1185.12,232.86 1185.29,232.741 1185.46,232.504C1196.55,217.773 1209.35,210.407 1223.86,210.407C1239.9,210.407 1252.74,218.783 1262.38,235.533C1272.03,252.284 1276.85,275.984 1276.85,306.634C1276.85,336.334 1271.81,359.797 1261.74,377.023C1251.67,394.248 1239.05,402.861 1223.86,402.861C1208.33,402.861 1194.93,394.07 1183.66,376.488C1183.49,376.25 1183.32,376.132 1183.15,376.132C1182.98,376.132 1182.9,376.25 1182.9,376.488L1182.64,378.983C1182.47,384.685 1180.98,389.496 1178.16,393.417C1175.34,397.337 1171.89,399.297 1167.79,399.297L1164.98,399.297Z" style="fill:rgb(109,201,101);fill-rule:nonzero;"/>
            <path d="M1367.22,310.198C1342.81,310.198 1330.61,320.652 1330.61,341.561C1330.61,349.164 1332.19,355.342 1335.34,360.094C1338.5,364.846 1342.56,367.222 1347.5,367.222C1357.23,367.222 1365.08,363.004 1371.06,354.57C1377.03,346.135 1380.02,334.552 1380.02,319.821L1380.02,313.406C1380.02,311.267 1379.25,310.198 1377.71,310.198L1367.22,310.198ZM1338.29,402.861C1326.68,402.861 1317.08,397.575 1309.49,387.002C1301.89,376.429 1298.1,362.707 1298.1,345.838C1298.1,325.167 1303.77,309.129 1315.12,297.724C1326.47,286.32 1343.84,280.617 1367.22,280.617L1377.71,280.617C1379.25,280.617 1380.02,279.548 1380.02,277.41L1380.02,274.559C1380.02,263.629 1378.14,255.967 1374.38,251.571C1370.63,247.175 1363.97,244.978 1354.42,244.978C1344.52,244.978 1332.4,247.472 1318.06,252.462C1314.99,253.65 1312.18,252.878 1309.62,250.145C1307.06,247.413 1305.78,243.79 1305.78,239.275C1305.78,233.811 1306.97,228.88 1309.36,224.485C1311.75,220.089 1314.82,217.416 1318.58,216.466C1331.55,212.427 1343.75,210.407 1355.18,210.407C1377.03,210.407 1392.3,215.872 1401.01,226.801C1409.71,237.731 1414.06,256.858 1414.06,284.181L1414.06,378.983C1414.06,384.447 1412.66,389.199 1409.84,393.239C1407.02,397.278 1403.65,399.297 1399.73,399.297L1396.91,399.297C1392.82,399.297 1389.32,397.337 1386.42,393.417C1383.52,389.496 1381.98,384.685 1381.81,378.983L1381.81,373.993C1381.81,373.756 1381.72,373.637 1381.55,373.637C1381.21,373.637 1381.04,373.756 1381.04,373.993C1370.63,393.239 1356.38,402.861 1338.29,402.861Z" style="fill:rgb(109,201,101);fill-rule:nonzero;"/>
        </g>
    </g>
</svg>
